<svg width="7" height="13.75" viewBox="0 0 7 14" fill="none" xmlns="http://www.w3.org/2000/svg">
<path d="M6.8602 4.34844C6.76797 4.44948 6.65877 4.5 6.53261 4.5C6.40669 4.5 6.29761 4.44948 6.20539 4.34844L3.50315 1.38799L0.791684 4.35855C0.705606 4.45285 0.598008 4.5 0.468891 4.5C0.339774 4.5 0.229102 4.44948 0.136875 4.34844C0.0446485 4.2474 -0.00146484 4.12777 -0.00146484 3.98955C-0.00146484 3.8516 0.0446485 3.7321 0.136875 3.63106L3.24491 0.236143C3.2818 0.195727 3.32177 0.167032 3.36481 0.150057C3.40785 0.133352 3.45396 0.125 3.50315 0.125C3.55233 0.125 3.59845 0.133352 3.64149 0.150057C3.68453 0.167032 3.72449 0.195727 3.76138 0.236143L6.86942 3.64117C6.9555 3.73547 6.99854 3.8516 6.99854 3.98955C6.99854 4.12777 6.95242 4.2474 6.8602 4.34844Z" fill="black"/>
<path d="M0.136875 9.65156C0.229102 9.55052 0.338298 9.5 0.464464 9.5C0.590384 9.5 0.699457 9.55052 0.791684 9.65156L3.49392 12.612L6.20539 9.64145C6.29146 9.54715 6.39906 9.5 6.52818 9.5C6.6573 9.5 6.76797 9.55052 6.8602 9.65156C6.95242 9.7526 6.99854 9.87223 6.99854 10.0105C6.99854 10.1484 6.95242 10.2679 6.8602 10.3689L3.75216 13.7639C3.71527 13.8043 3.6753 13.833 3.63226 13.8499C3.58922 13.8666 3.54311 13.875 3.49392 13.875C3.44474 13.875 3.39862 13.8666 3.35558 13.8499C3.31254 13.833 3.27258 13.8043 3.23569 13.7639L0.127652 10.3588C0.041574 10.2645 -0.00146484 10.1484 -0.00146484 10.0105C-0.00146484 9.87223 0.0446482 9.7526 0.136875 9.65156Z" fill="black"/>
</svg>
