<svg width="26.17" height="20" viewBox="0 0 21 16" fill="none" xmlns="http://www.w3.org/2000/svg">
<path d="M3.51209 0.899999L17.4879 0.9C19.2036 0.9 20.6 2.28864 20.6 3.99701L20.6 12.003C20.6 13.7112 19.2036 15.1 17.4879 15.1L3.51224 15.1C1.79642 15.1 0.399999 13.7114 0.399999 12.003L0.399999 3.99701C0.4 2.28871 1.7963 0.90012 3.51186 0.899999C3.51194 0.899999 3.51201 0.899999 3.51209 0.899999ZM1.54196 12.0028C1.54196 13.0826 2.42539 13.9622 3.51198 13.9622L17.4876 13.9622C18.5742 13.9622 19.4577 13.0827 19.4577 12.0028L19.4575 3.99682C19.4575 2.91698 18.5741 2.03739 17.4875 2.03739L3.51183 2.03738C2.42525 2.03738 1.54181 2.91694 1.54181 3.99682L1.54196 12.0028Z" fill="black" stroke="black" stroke-width="0.2"/>
<path d="M7.86048 7.17586L3.77924 4.37829C3.56499 4.23145 3.51109 3.93954 3.65868 3.72633C3.80656 3.51301 4.09996 3.45939 4.31395 3.60623L8.84594 6.71298C9.83572 7.39179 11.1662 7.39138 12.1558 6.71313L16.6878 3.60638C16.9022 3.45954 17.1955 3.51301 17.3431 3.72648C17.4907 3.93965 17.4368 4.23159 17.2225 4.37843L13.1417 7.176L17.5105 11.6836C17.6913 11.87 17.6857 12.1666 17.4985 12.3463C17.4068 12.4342 17.2891 12.4777 17.1713 12.4777C17.0478 12.4777 16.9246 12.4296 16.8322 12.3344L12.3393 7.69886C11.7689 8.00511 11.135 8.15837 10.501 8.15837C9.86707 8.15837 9.23324 8.0051 8.66274 7.69871L4.16985 12.3342C4.07748 12.4296 3.95412 12.4775 3.83077 12.4775C3.71314 12.4775 3.59522 12.4339 3.50358 12.3462C3.31649 12.1665 3.31091 11.8697 3.49154 11.6834L7.86048 7.17586Z" fill="black"/>
</svg>
