<svg width="16" height="20" viewBox="0 0 16 20" fill="none" xmlns="http://www.w3.org/2000/svg">
<path d="M1.36948 16.0602C0.996618 15.6341 0.810076 15.0748 0.863391 14.5155C0.916711 13.8762 1.52924 13.0773 2.24841 12.1451C2.30173 12.0652 2.38161 11.9585 2.43493 11.9054V7.51069C2.43493 4.39451 4.77877 1.75775 7.76173 1.43814V0.66585C7.76173 0.292983 8.05471 0 8.42758 0C8.80045 0 9.09343 0.292983 9.09343 0.66585V1.43814C10.3985 1.57135 11.6236 2.1573 12.5824 3.0894C13.7544 4.23457 14.4202 5.7528 14.4202 7.40406V11.9318C14.4735 12.0117 14.5534 12.0916 14.6068 12.1714C15.3259 13.1037 15.9385 13.9026 15.9918 14.5419C16.0451 15.1013 15.8586 15.6605 15.4857 16.0866C15.1128 16.5128 14.5802 16.7525 13.9942 16.7525H2.80795C2.30166 16.7261 1.76909 16.4864 1.36948 16.0602ZM14.5533 15.1547C14.6865 15.0215 14.7398 14.8352 14.7131 14.6486C14.6598 14.3291 13.8607 13.3169 13.5945 12.9707C13.5895 12.9643 13.5845 12.9579 13.5796 12.9516C13.2188 12.4878 13.1151 12.3546 13.1151 12.0917V7.4042C13.1151 6.12582 12.609 4.92734 11.7035 4.04837C10.8246 3.19599 9.6794 2.74326 8.48073 2.74326H8.32095C5.84409 2.82314 3.81976 4.98046 3.81976 7.53737V12.1184C3.81976 12.381 3.71633 12.514 3.35629 12.977C3.35106 12.9837 3.34578 12.9905 3.34045 12.9973C3.07403 13.3169 2.27518 14.329 2.22182 14.6486C2.19525 14.8351 2.27514 15.0215 2.3816 15.1547C2.5148 15.2879 2.67458 15.3678 2.88769 15.3678H14.0473C14.2337 15.3944 14.4203 15.3145 14.5533 15.1547Z" fill="#4E4E4E"/>
<path d="M7.20333 17.7626C7.38986 18.2952 7.89577 18.6415 8.45513 18.6415C9.01449 18.6415 9.52039 18.2952 9.70692 17.7626C9.84013 17.4163 10.213 17.2299 10.5593 17.3631C10.9056 17.4963 11.0919 17.8692 10.9587 18.2155C10.5859 19.2808 9.57372 20 8.4551 20C7.33647 20 6.32433 19.2808 5.95146 18.2155C5.81825 17.8692 6.00478 17.4964 6.35089 17.3631C6.69719 17.2299 7.07006 17.4163 7.20327 17.7626H7.20333Z" fill="#4E4E4E"/>
</svg>
