<svg width="27" height="20" viewBox="0 0 27 20" fill="none" xmlns="http://www.w3.org/2000/svg">
<path d="M4.71844 0.131544L22.8216 0.131546C24.973 0.131546 26.7231 2.02677 26.7231 4.35665L26.7231 15.6433C26.7231 17.973 24.973 19.8684 22.8216 19.8684L4.71893 19.8684C2.56735 19.8684 0.817177 17.9732 0.817177 15.6433L0.817178 4.35665C0.817179 2.02676 2.56706 0.131544 4.71844 0.131544ZM2.0373 15.643C2.0373 17.2439 3.24023 18.5464 4.71858 18.5464L22.8212 18.5464C24.2996 18.5464 25.5025 17.2439 25.5025 15.643L25.5023 4.35639C25.5023 2.75551 24.2994 1.45305 22.8211 1.45305L4.7184 1.45305C3.24004 1.45305 2.03711 2.75546 2.03711 4.35638L2.0373 15.643Z" fill="#4E4E4E"/>
<path fill-rule="evenodd" clip-rule="evenodd" d="M22.8216 -3.52588e-07L4.71845 -1.93522e-06C2.48472 -2.13049e-06 0.685613 1.96421 0.685613 4.35668L0.685612 15.6433C0.685612 18.0358 2.48503 20 4.71894 20L22.8216 20C25.0553 20 26.8547 18.0356 26.8547 15.6433L26.8547 4.35668C26.8547 1.96419 25.0553 -1.5731e-07 22.8216 -3.52588e-07ZM4.7186 18.4148C3.32257 18.4148 2.16889 17.1813 2.16889 15.643L2.1687 4.35642C2.1687 2.81811 3.32238 1.58466 4.71841 1.58466L22.8211 1.58466C24.2171 1.58466 25.3708 2.81817 25.3708 4.35642L25.371 15.6431C25.371 17.1814 24.2173 18.4148 22.8213 18.4148L4.7186 18.4148ZM22.8216 0.131579L4.71845 0.131577C2.56707 0.131577 0.817192 2.0268 0.817192 4.35668L0.817191 15.6433C0.817191 17.9732 2.56736 19.8684 4.71894 19.8684L22.8216 19.8684C24.973 19.8684 26.7232 17.973 26.7232 15.6433L26.7232 4.35668C26.7232 2.0268 24.973 0.131579 22.8216 0.131579ZM4.7186 18.5464C3.24024 18.5464 2.03731 17.2439 2.03731 15.643L2.03712 4.35642C2.03712 2.75549 3.24005 1.45308 4.71841 1.45308L22.8211 1.45308C24.2994 1.45308 25.5024 2.75555 25.5024 4.35642L25.5025 15.6431C25.5025 17.244 24.2996 18.5464 22.8213 18.5464L4.7186 18.5464Z" fill="#4E4E4E"/>
<path d="M10.35 8.84541L5.0636 4.90146C4.78607 4.69445 4.71626 4.28293 4.90743 3.98236C5.09898 3.68162 5.47902 3.60603 5.7562 3.81304L11.6265 8.19286C12.9085 9.14983 14.6319 9.14925 15.9138 8.19307L21.7841 3.81325C22.0618 3.60624 22.4417 3.68163 22.6328 3.98256C22.824 4.28309 22.7542 4.69465 22.4767 4.90167L17.1908 8.84561L22.8497 15.2003C23.0838 15.4631 23.0766 15.8812 22.8341 16.1346C22.7154 16.2584 22.5628 16.3198 22.4103 16.3198C22.2503 16.3198 22.0907 16.252 21.9711 16.1177L16.1514 9.58273C15.4126 10.0145 14.5915 10.2305 13.7703 10.2305C12.9492 10.2305 12.1281 10.0145 11.3892 9.58252L5.56955 16.1175C5.44991 16.252 5.29012 16.3196 5.13034 16.3196C4.97798 16.3196 4.82523 16.258 4.70654 16.1344C4.4642 15.8811 4.45697 15.4627 4.69094 15.2001L10.35 8.84541Z" fill="#4E4E4E"/>
</svg>
