<svg width="31" height="31" viewBox="0 0 31 32" fill="none" xmlns="http://www.w3.org/2000/svg">
<path d="M15.4998 31.4969C24.0594 31.4969 30.9985 24.558 30.9985 15.9981C30.9985 7.43841 24.0594 0.499374 15.4998 0.499374C6.94001 0.499374 0.000976562 7.43841 0.000976562 15.9981C0.000976562 24.558 6.94001 31.4969 15.4998 31.4969Z" fill="#E8E8E8"/>
<path d="M15.5005 8.13609C12.2923 8.13609 9.68848 10.7399 9.68848 13.9481C9.68848 17.0943 12.1528 19.6516 15.423 19.7446C15.4695 19.7446 15.5315 19.7446 15.5625 19.7446C15.5935 19.7446 15.64 19.7446 15.671 19.7446C15.6865 19.7446 15.702 19.7446 15.702 19.7446C18.8328 19.6361 21.2971 17.0943 21.3126 13.9481C21.3126 10.7399 18.7088 8.13609 15.5005 8.13609Z" fill="black"/>
<path d="M26.0076 27.3935C23.2488 29.9353 19.5601 31.5007 15.4994 31.5007C11.4387 31.5007 7.74999 29.9353 4.99121 27.3935C5.36318 25.9831 6.3706 24.6967 7.84299 23.7048C12.0742 20.884 18.9556 20.884 23.1558 23.7048C24.6437 24.6967 25.6356 25.9831 26.0076 27.3935Z" fill="black"/>
</svg>
