<svg width="20" height="20" viewBox="0 0 21 20" fill="none" xmlns="http://www.w3.org/2000/svg">
<path fill-rule="evenodd" clip-rule="evenodd" d="M0.685547 8.4646C0.685547 3.78973 4.47528 0 9.15015 0C13.825 0 17.6147 3.78973 17.6147 8.4646C17.6147 13.1395 13.825 16.9292 9.15015 16.9292C4.47528 16.9292 0.685547 13.1395 0.685547 8.4646ZM9.15015 1.56681C5.3406 1.56681 2.25236 4.65506 2.25236 8.4646C2.25236 12.2741 5.3406 15.3624 9.15015 15.3624C12.9597 15.3624 16.0479 12.2741 16.0479 8.4646C16.0479 4.65506 12.9597 1.56681 9.15015 1.56681Z" fill="#4E4E4E"/>
<path fill-rule="evenodd" clip-rule="evenodd" d="M14.0224 13.3369C14.3284 13.031 14.8244 13.031 15.1303 13.3369L20.456 18.6625C20.7619 18.9685 20.7619 19.4645 20.456 19.7705C20.15 20.0764 19.654 20.0764 19.3481 19.7705L14.0224 14.4448C13.7165 14.1389 13.7165 13.6429 14.0224 13.3369Z" fill="#4E4E4E"/>
</svg>
