<svg width="18" height="18" viewBox="0 0 18 18" fill="none" xmlns="http://www.w3.org/2000/svg">
<path fill-rule="evenodd" clip-rule="evenodd" d="M3.20352 2.25C2.56764 2.25 2.22027 2.99165 2.62736 3.48013L7.72944 9.60262C8.06642 10.007 8.25099 10.5167 8.25099 11.0431V14.25C8.25099 14.4861 8.36207 14.7083 8.55099 14.85L9.75099 15.75V11.0431C9.75099 10.5167 9.93549 10.007 10.2725 9.60262L15.3746 3.48013C15.7817 2.99165 15.4343 2.25 14.7984 2.25H3.20352ZM1.47502 4.44041C0.253783 2.97493 1.29589 0.75 3.20352 0.75H14.7984C16.706 0.75 17.7482 2.97493 16.5269 4.44041L11.4248 10.5629C11.3125 10.6977 11.251 10.8677 11.251 11.0431V15.75C11.251 16.9861 9.83979 17.6917 8.85099 16.95L7.65099 16.05C7.0844 15.625 6.75095 14.9582 6.75095 14.25V11.0431C6.75095 10.8677 6.68945 10.6977 6.57713 10.5629L1.47502 4.44041Z" fill="black"/>
</svg>
