<svg width="16" height="18" viewBox="0 0 16 18" fill="none" xmlns="http://www.w3.org/2000/svg">
<path d="M10.9765 0.750002C11.3247 0.749179 11.6 1.02129 11.6008 1.38411L11.6017 2.00255C13.8609 2.18066 15.3534 3.72924 15.3558 6.10405L15.3647 13.0553C15.3679 15.6445 13.7508 17.2376 11.1587 17.2417L4.82702 17.25C2.2511 17.2533 0.61372 15.6223 0.610481 13.0256L0.601568 6.156C0.598334 3.76552 2.03813 2.22107 4.29742 2.01245L4.29661 1.39401C4.2958 1.03119 4.56303 0.75825 4.91933 0.75825C5.27564 0.757425 5.54286 1.02954 5.54367 1.39236L5.54448 1.96957L10.3546 1.96297L10.3538 1.38576C10.353 1.02294 10.6202 0.750828 10.9765 0.750002ZM11.3069 12.4583H11.2988C10.9263 12.4674 10.6275 12.7816 10.6356 13.1609C10.6364 13.5402 10.9368 13.8527 11.3093 13.8609C11.6891 13.8601 11.9968 13.5459 11.996 13.1584C11.996 12.7708 11.6875 12.4583 11.3069 12.4583ZM4.63429 12.4591C4.26179 12.4756 3.97027 12.7898 3.97107 13.1691C3.98808 13.5484 4.2958 13.8453 4.6683 13.828C5.03351 13.8115 5.32422 13.4973 5.30722 13.118C5.29912 12.7469 4.99869 12.4583 4.63429 12.4591ZM7.97059 12.455C7.59809 12.4723 7.30738 12.7857 7.30738 13.165C7.32438 13.5443 7.6321 13.8403 8.0046 13.8238C8.369 13.8065 8.66052 13.4932 8.64352 13.113C8.63542 12.7428 8.33499 12.4542 7.97059 12.455ZM4.63024 9.49062C4.25774 9.50712 3.96703 9.82129 3.96784 10.2006C3.98403 10.5799 4.29256 10.8768 4.66506 10.8594C5.02946 10.8429 5.32017 10.5288 5.30317 10.1495C5.29507 9.77841 4.99545 9.4898 4.63024 9.49062ZM7.96735 9.46176C7.59485 9.47826 7.30333 9.79243 7.30414 10.1717C7.32033 10.551 7.62886 10.8471 8.00136 10.8306C8.36576 10.8133 8.65648 10.4999 8.64028 10.1206C8.63137 9.74955 8.33175 9.46094 7.96735 9.46176ZM11.3037 9.46589C10.9312 9.47413 10.6396 9.77923 10.6404 10.1585V10.1676C10.6485 10.5469 10.9563 10.8347 11.3296 10.8265C11.694 10.8174 11.9847 10.5032 11.9766 10.1239C11.9596 9.76109 11.6672 9.46506 11.3037 9.46589ZM10.3562 3.23284L5.5461 3.23943L5.54691 3.90652C5.54691 4.26192 5.28049 4.54228 4.92419 4.54228C4.56789 4.5431 4.29985 4.26357 4.29985 3.90817L4.29904 3.27324C2.71996 3.43239 1.84621 4.36582 1.84863 6.15435L1.84945 6.41079L14.1095 6.3943V6.1057C14.0747 4.33283 13.1904 3.4027 11.6033 3.26417L11.6041 3.8991C11.6041 4.25367 11.3296 4.53486 10.9814 4.53486C10.6251 4.53568 10.357 4.25532 10.357 3.90075L10.3562 3.23284Z" fill="black"/>
</svg>
