<svg width="15.15" height="20" viewBox="0 0 19 23" fill="none" xmlns="http://www.w3.org/2000/svg">
<path d="M1.1121 18.4696C0.668982 17.9794 0.44729 17.3363 0.510651 16.693C0.574018 15.9579 1.30195 15.0392 2.15661 13.967C2.21998 13.8751 2.31492 13.7525 2.37829 13.6914V8.63742C2.37829 5.05376 5.16372 2.02144 8.7087 1.65389V0.765738C8.7087 0.336936 9.05688 0 9.5 0C9.94312 0 10.2913 0.336936 10.2913 0.765738V1.65389C11.8423 1.80708 13.2982 2.48094 14.4377 3.55286C15.8304 4.86982 16.6217 6.61581 16.6217 8.51479V13.7218C16.6851 13.8136 16.78 13.9055 16.8434 13.9974C17.698 15.0695 18.426 15.9882 18.4893 16.7234C18.5527 17.3667 18.331 18.0098 17.8879 18.4999C17.4448 18.99 16.8118 19.2656 16.1154 19.2656H2.82158C2.21991 19.2353 1.58692 18.9597 1.11203 18.4696H1.1121ZM16.7799 17.4282C16.9382 17.275 17.0015 17.0607 16.9697 16.8462C16.9064 16.4787 15.9568 15.3147 15.6404 14.9165C15.1972 14.3653 15.0707 14.2121 15.0707 13.9057V8.51496C15.0707 7.0448 14.4693 5.66652 13.3932 4.65569C12.3487 3.67544 10.9877 3.15479 9.56316 3.15479H9.37328C6.42976 3.24666 4.02403 5.72762 4.02403 8.66811V13.9364C4.02403 14.2428 3.89752 14.3957 3.45441 14.9472C3.13779 15.3146 2.18844 16.4786 2.12502 16.8461C2.09345 17.0606 2.18839 17.2749 2.3149 17.4282C2.4732 17.5813 2.66308 17.6732 2.91634 17.6732H16.1786C16.4 17.7038 16.6217 17.6119 16.7798 17.4282L16.7799 17.4282Z" fill="black"/>
<path d="M8.04232 20.4231C8.26399 21.0357 8.86522 21.4339 9.52997 21.4339C10.1947 21.4339 10.7959 21.0356 11.0176 20.4231C11.1759 20.0249 11.6191 19.8106 12.0306 19.9638C12.4421 20.1169 12.6636 20.5458 12.5053 20.944C12.0622 22.1691 10.8593 22.9962 9.52994 22.9962C8.20055 22.9962 6.99771 22.1691 6.55459 20.944C6.39628 20.5458 6.61795 20.117 7.02928 19.9638C7.44082 19.8106 7.88394 20.0249 8.04226 20.4231H8.04232Z" fill="black"/>
</svg>
