<svg width="20" height="20" viewBox="0 0 20 20" fill="none" xmlns="http://www.w3.org/2000/svg">
<g clip-path="url(#clip0_20_6)">
<path d="M10 0C4.47254 0 0 4.47301 0 10C0 15.5275 4.47301 20 10 20C15.5275 20 20 15.527 20 10C20 4.47254 15.527 0 10 0ZM10 18.6667C5.22121 18.6667 1.33332 14.7788 1.33332 10C1.33332 5.22117 5.22121 1.33332 10 1.33332C14.7788 1.33332 18.6667 5.22121 18.6667 10C18.6667 14.7788 14.7788 18.6667 10 18.6667Z" fill="black"/>
<path d="M15.2941 6.32808C15.0337 6.06772 14.6116 6.06772 14.3512 6.32808L8.4162 12.2631L5.64979 9.49675C5.38944 9.2364 4.96729 9.2364 4.70698 9.49675C4.44663 9.7571 4.44663 10.1792 4.70698 10.4396L7.94476 13.6773C8.20507 13.9376 8.62733 13.9376 8.88757 13.6773L15.2941 7.27085C15.5544 7.0105 15.5544 6.58843 15.2941 6.32808Z" fill="black"/>
</g>
<defs>
<clipPath id="clip0_20_6">
<rect width="20" height="20" fill="white"/>
</clipPath>
</defs>
</svg>
