<svg width="20" height="20" viewBox="0 0 20 20" fill="none" xmlns="http://www.w3.org/2000/svg">
<path d="M0.666609 1.74666e-07C0.298536 1.74666e-07 0 0.229653 0 0.512776V15.3846C0 15.6677 0.298548 15.8974 0.666609 15.8974H5.33317V19.487C5.33317 19.7702 5.63172 20 6.00001 20H19.3334C19.7015 20 20 19.7703 20 19.4872V4.61539C20 4.33208 19.7015 4.10262 19.3334 4.10262H14.6668V0.512955C14.6668 0.229823 14.3683 0 14 0L0.666609 1.74666e-07ZM1.33322 1.02555H13.3333V14.8717H1.33322V1.02555ZM14.6666 5.12822H18.6665V18.9744H6.66651V15.8975H13.9999C14.3682 15.8975 14.6665 15.6679 14.6665 15.3847L14.6666 5.12822Z" fill="black"/>
</svg>
