<svg width="20" height="20" viewBox="0 0 20 20" fill="none" xmlns="http://www.w3.org/2000/svg">
<g clip-path="url(#clip0_20_11)">
<path d="M10 20C4.48593 20 0 15.5141 0 10C0 4.48593 4.48593 0 10 0C15.5141 0 20 4.48593 20 10C20 15.5141 15.5141 20 10 20ZM10 1.42853C5.27374 1.42853 1.42853 5.27374 1.42853 10C1.42853 14.7263 5.27374 18.5715 10 18.5715C14.7263 18.5715 18.5715 14.7263 18.5715 10C18.5715 5.27374 14.7263 1.42853 10 1.42853Z" fill="black"/>
<path d="M13.572 14.2823C13.3892 14.2823 13.2064 14.2126 13.0669 14.073L5.92416 6.93017C5.64507 6.65109 5.64507 6.19912 5.92416 5.92019C6.20309 5.64126 6.6552 5.64111 6.93414 5.92019L14.0769 13.063C14.356 13.3421 14.356 13.794 14.0769 14.073C13.9375 14.2126 13.7548 14.2823 13.572 14.2823Z" fill="black"/>
<path d="M6.42907 14.2824C6.24627 14.2824 6.06362 14.2126 5.92416 14.073C5.64507 13.7941 5.64507 13.342 5.92416 13.063L13.0669 5.92025C13.346 5.64117 13.798 5.64117 14.0769 5.92025C14.3559 6.19918 14.356 6.6513 14.0769 6.93023L6.93414 14.073C6.79467 14.2126 6.61187 14.2824 6.42907 14.2824Z" fill="black"/>
</g>
<defs>
<clipPath id="clip0_20_11">
<rect width="20" height="20" fill="white"/>
</clipPath>
</defs>
</svg>
