<svg width="20" height="22" viewBox="0 0 20 22" fill="none" xmlns="http://www.w3.org/2000/svg">
<path d="M13.9388 21.269H6.06188C5.2738 21.2576 4.51906 20.9492 3.94859 20.4053C3.37812 19.8615 3.03397 19.1223 2.98496 18.3357L2.05162 4.14083C2.04684 4.03791 2.0625 3.93507 2.09771 3.83824C2.13292 3.74141 2.18698 3.65253 2.25675 3.57672C2.32863 3.49816 2.41566 3.43495 2.5126 3.39088C2.60955 3.34682 2.7144 3.32282 2.82085 3.32031H17.1798C17.2853 3.32008 17.3897 3.34154 17.4865 3.38337C17.5834 3.42519 17.6706 3.48648 17.7427 3.56343C17.8149 3.64039 17.8704 3.73135 17.9059 3.83068C17.9414 3.93001 17.9561 4.03558 17.9491 4.14083L17.0568 18.3357C17.0072 19.1293 16.6573 19.8743 16.0781 20.4192C15.4989 20.9641 14.734 21.268 13.9388 21.269ZM3.68239 4.85878L4.47214 18.2434C4.49823 18.647 4.67717 19.0255 4.97252 19.3018C5.26788 19.5781 5.65744 19.7314 6.06188 19.7306H13.9388C14.3425 19.729 14.7307 19.5748 15.0256 19.299C15.3204 19.0232 15.5001 18.6461 15.5285 18.2434L16.3593 4.91006L3.68239 4.85878Z" fill="black"/>
<path d="M19.2308 4.85877H0.769231C0.565218 4.85877 0.369561 4.77773 0.225302 4.63347C0.0810436 4.48921 0 4.29356 0 4.08954C0 3.88553 0.0810436 3.68987 0.225302 3.54561C0.369561 3.40136 0.565218 3.32031 0.769231 3.32031H19.2308C19.4348 3.32031 19.6304 3.40136 19.7747 3.54561C19.919 3.68987 20 3.88553 20 4.08954C20 4.29356 19.919 4.48921 19.7747 4.63347C19.6304 4.77773 19.4348 4.85877 19.2308 4.85877Z" fill="black"/>
<path d="M13.0754 4.86538H6.92157C6.71839 4.86273 6.52427 4.78083 6.38058 4.63714C6.2369 4.49346 6.155 4.29934 6.15234 4.09615V2.25C6.16535 1.72366 6.38023 1.22247 6.75252 0.850181C7.12482 0.477889 7.626 0.263002 8.15234 0.25H11.8447C12.3797 0.263382 12.8884 0.485391 13.2621 0.868641C13.6358 1.25189 13.8448 1.76602 13.8447 2.30128V4.09615C13.842 4.29934 13.7601 4.49346 13.6164 4.63714C13.4727 4.78083 13.2786 4.86273 13.0754 4.86538ZM7.69081 3.32692H12.3062V2.30128C12.3062 2.17887 12.2576 2.06148 12.171 1.97493C12.0845 1.88837 11.9671 1.83974 11.8447 1.83974H8.15234C8.02994 1.83974 7.91254 1.88837 7.82599 1.97493C7.73943 2.06148 7.69081 2.17887 7.69081 2.30128V3.32692Z" fill="black"/>
<path d="M13.0739 17.1733C12.8707 17.1706 12.6766 17.0887 12.5329 16.945C12.3892 16.8013 12.3073 16.6072 12.3047 16.404V8.19892C12.3047 7.99491 12.3857 7.79925 12.53 7.65499C12.6742 7.51073 12.8699 7.42969 13.0739 7.42969C13.2779 7.42969 13.4736 7.51073 13.6178 7.65499C13.7621 7.79925 13.8431 7.99491 13.8431 8.19892V16.404C13.8405 16.6072 13.7586 16.8013 13.6149 16.945C13.4712 17.0887 13.2771 17.1706 13.0739 17.1733Z" fill="black"/>
<path d="M6.92157 17.1733C6.71839 17.1706 6.52427 17.0887 6.38058 16.945C6.2369 16.8013 6.155 16.6072 6.15234 16.404V8.19892C6.15234 7.99491 6.23339 7.79925 6.37765 7.65499C6.52191 7.51073 6.71756 7.42969 6.92157 7.42969C7.12559 7.42969 7.32124 7.51073 7.4655 7.65499C7.60976 7.79925 7.69081 7.99491 7.69081 8.19892V16.404C7.68815 16.6072 7.60625 16.8013 7.46257 16.945C7.31888 17.0887 7.12476 17.1706 6.92157 17.1733Z" fill="black"/>
<path d="M9.9997 17.1733C9.79651 17.1706 9.6024 17.0887 9.45871 16.945C9.31502 16.8013 9.23313 16.6072 9.23047 16.404V8.19892C9.23047 7.99491 9.31151 7.79925 9.45577 7.65499C9.60003 7.51073 9.79569 7.42969 9.9997 7.42969C10.2037 7.42969 10.3994 7.51073 10.5436 7.65499C10.6879 7.79925 10.7689 7.99491 10.7689 8.19892V16.404C10.7663 16.6072 10.6844 16.8013 10.5407 16.945C10.397 17.0887 10.2029 17.1706 9.9997 17.1733Z" fill="black"/>
</svg>
