<svg width="7" height="12" viewBox="0 0 7 12" fill="none" xmlns="http://www.w3.org/2000/svg">
<path d="M6.86166 4.34844C6.76943 4.44948 6.66024 4.5 6.53407 4.5C6.40815 4.5 6.29908 4.44948 6.20685 4.34844L3.50461 1.38799L0.793149 4.35855C0.707071 4.45285 0.599473 4.5 0.470356 4.5C0.341238 4.5 0.230567 4.44948 0.13834 4.34844C0.0461133 4.2474 0 4.12777 0 3.98955C0 3.8516 0.0461133 3.7321 0.13834 3.63106L3.24638 0.236143C3.28327 0.195727 3.32323 0.167032 3.36627 0.150057C3.40931 0.133352 3.45542 0.125 3.50461 0.125C3.5538 0.125 3.59991 0.133352 3.64295 0.150057C3.68599 0.167032 3.72596 0.195727 3.76285 0.236143L6.87088 3.64117C6.95696 3.73547 7 3.8516 7 3.98955C7 4.12777 6.95389 4.2474 6.86166 4.34844Z" fill="black"/>
<path d="M0.13834 7.65156C0.230567 7.55052 0.339763 7.5 0.465929 7.5C0.591849 7.5 0.700922 7.55052 0.793149 7.65156L3.49539 10.612L6.20685 7.64145C6.29293 7.54715 6.40053 7.5 6.52964 7.5C6.65876 7.5 6.76943 7.55052 6.86166 7.65156C6.95389 7.7526 7 7.87223 7 8.01045C7 8.1484 6.95389 8.2679 6.86166 8.36894L3.75362 11.7639C3.71673 11.8043 3.67677 11.833 3.63373 11.8499C3.59069 11.8666 3.54458 11.875 3.49539 11.875C3.4462 11.875 3.40009 11.8666 3.35705 11.8499C3.31401 11.833 3.27404 11.8043 3.23715 11.7639L0.129117 8.35883C0.0430388 8.26453 0 8.1484 0 8.01045C0 7.87223 0.046113 7.7526 0.13834 7.65156Z" fill="black"/>
</svg>
