<svg width="19" height="19" viewBox="0 0 19 19" fill="none" xmlns="http://www.w3.org/2000/svg">
<path d="M14.9348 14.1192L14.9213 14.1118L14.4037 13.8269C13.9272 13.5647 13.3324 13.5995 12.893 13.9146L12.8928 13.9147C12.5572 14.1531 12.1891 14.3571 11.7985 14.5206L11.7981 14.5208C11.2998 14.7245 10.9747 15.1967 10.9747 15.717V15.7176C10.9732 15.8389 10.9725 15.9808 10.9722 16.0926L10.9719 16.231L10.9718 16.2712L10.9718 16.2819L10.9718 16.2847V16.2854V16.2856V16.2856C10.9718 17.0645 10.3103 17.6928 9.50004 17.6928C8.68982 17.6928 8.02826 17.0645 8.02826 16.2856V15.7171C8.02765 15.1955 7.7018 14.7226 7.19704 14.5161L7.19691 14.5161C6.8081 14.3557 6.44004 14.1517 6.10086 13.9129L6.10046 13.9126C5.66712 13.6009 5.07303 13.5666 4.59697 13.8288L4.59665 13.829C4.48583 13.889 4.35634 13.9597 4.25453 14.0154L4.12841 14.0845L4.09181 14.1046L4.08203 14.11L4.07951 14.1113L4.07887 14.1117L4.07872 14.1118L4.07871 14.1118L4.07867 14.1118L4.07866 14.1118M14.9348 14.1192L2.62101 11.7241C1.95047 12.1017 1.72231 12.9263 2.11248 13.5713C2.50493 14.2201 3.37497 14.4426 4.05458 14.068L4.07866 14.1118M14.9348 14.1192L14.935 14.1192C15.6352 14.4958 16.5262 14.2654 16.9304 13.5972C17.3375 12.9245 17.0964 12.0655 16.3951 11.6758L16.3951 11.6757L15.8776 11.3887L15.8775 11.3886C15.4046 11.1286 15.1405 10.626 15.2019 10.1125L15.202 10.1122C15.225 9.9115 15.2372 9.70677 15.2372 9.49987C15.2372 9.29372 15.225 9.0894 15.2013 8.88932L15.2013 8.88929C15.1399 8.37376 15.404 7.87114 15.8768 7.6097L16.3915 7.32603C17.0949 6.93828 17.3382 6.07658 16.9305 5.40257C16.5259 4.73276 15.6308 4.50297 14.9303 4.88295L14.93 4.8831L14.9541 4.9269L14.93 4.8831L14.93 4.88311L14.9299 4.88313L14.9298 4.88322L14.9291 4.88358L14.9266 4.88499L14.9167 4.89044L14.8795 4.91086L14.7515 4.98111C14.6481 5.03776 14.5164 5.10966 14.4035 5.1707L14.4032 5.1709C13.9271 5.43316 13.333 5.3988 12.8997 5.08715L12.8993 5.08687C12.5601 4.84805 12.192 4.64403 11.8032 4.48368L11.8031 4.48363C11.2983 4.27718 10.9725 3.80421 10.9719 3.28267V2.71413C10.9719 1.9352 10.3103 1.30698 9.50009 1.30698C8.69347 1.30698 8.03343 1.9303 8.02832 2.70499V2.70532V2.70534V2.70538V2.70556V2.70627L8.02832 2.70907L8.02831 2.71995L8.02827 2.76065L8.02796 2.901C8.0276 3.01435 8.02689 3.15854 8.02546 3.28215V3.28273C8.02546 3.80098 7.70279 4.27179 7.20178 4.4794M14.9348 14.1192L7.20178 4.4794M4.07866 14.1118C3.37647 14.4988 2.47655 14.2698 2.0697 13.5972C1.66204 12.9233 1.90506 12.0619 2.60814 11.674M4.07866 14.1118L2.60814 11.674M2.60814 11.674L2.60806 11.6737L3.12339 11.39L2.60814 11.674ZM7.20178 4.4794L7.20164 4.47908C6.81099 4.64267 6.44294 4.84667 6.10727 5.08499L6.10708 5.08513C5.66774 5.40024 5.07296 5.43503 4.59638 5.17284C4.59637 5.17284 4.59637 5.17283 4.59637 5.17283L4.07879 4.88794L7.20178 4.4794ZM15.1523 10.1065C15.1751 9.90764 15.1872 9.70481 15.1872 9.49987C15.1872 9.29568 15.1751 9.09333 15.1517 8.89521L15.1523 10.1065ZM15.1523 10.1065C15.0883 10.6412 15.3635 11.163 15.8534 11.4324L16.3708 11.7195C17.0484 12.096 17.2794 12.9239 16.8876 13.5713L15.1523 10.1065ZM8.07832 2.70532C8.08323 1.96025 8.71877 1.35698 9.50009 1.35698C10.2849 1.35698 10.9219 1.96498 10.9219 2.71413V3.28273C10.9225 3.82559 11.2616 4.31618 11.7842 4.52991L8.07832 2.70532ZM8.07832 2.70532C8.07832 2.70532 8.07832 3.03508 8.07546 3.28273C8.07546 3.82181 7.74017 4.30983 7.22222 4.52505L8.07832 2.70532ZM3.79883 10.1104L3.79883 10.1104C3.77511 9.91034 3.76294 9.70602 3.76294 9.49987C3.76294 9.29297 3.77511 9.08824 3.79818 8.88752L3.7982 8.88729C3.85962 8.37378 3.59552 7.87116 3.12264 7.6103L3.1226 7.61028L2.59866 7.32067L2.59826 7.32045C1.90165 6.92715 1.66498 6.07175 2.06977 5.40253L2.11255 5.42841L2.06977 5.40253C2.4766 4.72999 3.37653 4.50092 4.07877 4.88793L3.79883 10.1104ZM3.79883 10.1104C3.86025 10.626 3.59616 11.1285 3.12348 11.39L3.79883 10.1104ZM6.70649 2.69698H6.70648C6.71632 1.23633 7.96206 0.05 9.50004 0.05C11.0443 0.05 12.2936 1.24574 12.2936 2.71429L12.2936 2.71454L12.2965 3.28392L12.2966 3.3172L12.3274 3.32989C12.8109 3.52927 13.2661 3.78117 13.6875 4.07837L13.7129 4.09625L13.7402 4.08146L14.2748 3.7917L14.2748 3.79168C15.6087 3.06704 17.3092 3.50763 18.0762 4.77589L18.1189 4.75002L18.0762 4.77589C18.8456 6.04807 18.3894 7.67798 17.054 8.41398L17.0782 8.45777L17.054 8.41399L17.054 8.41401L17.0538 8.4141L17.0532 8.41445L17.0507 8.41582L17.0411 8.42113L17.005 8.44102L16.8805 8.5097L16.54 8.69755L16.5106 8.71383L16.5146 8.74726C16.5442 8.99438 16.559 9.24551 16.559 9.5C16.559 9.75389 16.5442 10.0044 16.5152 10.2521L16.5113 10.2854L16.5406 10.3017L17.054 10.586L17.0541 10.586C18.3895 11.322 18.8456 12.952 18.0762 14.2241L18.119 14.25L18.0762 14.2241C17.3065 15.4976 15.5957 15.9363 14.2591 15.1998L14.2591 15.1995L13.7395 14.9172L13.7121 14.9023L13.6867 14.9203C13.2682 15.2167 12.8137 15.4694 12.3278 15.6723L12.2973 15.6851L12.2971 15.7182L12.2936 16.2854V16.2857C12.2936 17.7543 11.0444 18.95 9.50007 18.95C7.95578 18.95 6.70651 17.7543 6.70651 16.2857L6.70651 16.2855L6.70365 15.7161L6.70349 15.6828L6.67272 15.6701C6.4327 15.5711 6.09234 15.3839 5.81016 15.2201C5.66948 15.1385 5.54395 15.0631 5.45359 15.0081C5.40842 14.9807 5.37205 14.9583 5.34699 14.9428L5.3182 14.9249L5.31076 14.9203L5.30888 14.9191L5.30841 14.9188L5.3083 14.9187L5.30827 14.9187L5.28172 14.9611L5.30826 14.9187L5.28345 14.9032L5.25775 14.9172L4.74091 15.1996L4.74099 15.1999C3.40437 15.9363 1.69369 15.4976 0.923971 14.2241L0.923963 14.2241C0.154561 12.9519 0.610687 11.322 1.9461 10.586L1.9461 10.586L1.92196 10.5422L1.94611 10.586L1.94612 10.586L1.94616 10.586L1.94632 10.5859L1.94695 10.5855L1.94943 10.5842L1.95906 10.5788L1.99513 10.559L2.11966 10.4903L2.46008 10.3024L2.48956 10.2862L2.48556 10.2527C2.45597 10.0056 2.44116 9.75447 2.44116 9.49998C2.44116 9.24609 2.45596 8.99554 2.48494 8.74784L2.48883 8.71456L2.45952 8.69831L1.93077 8.40515C1.93077 8.40515 1.93076 8.40514 1.93075 8.40514C0.607241 7.66527 0.157207 6.04264 0.923926 4.77585L0.923942 4.77582C1.69373 3.50222 3.40468 3.06358 4.74135 3.80028L4.7416 3.80041L5.26063 4.08274L5.288 4.09763L5.31342 4.07962C5.73191 3.78322 6.18645 3.53054 6.67227 3.32763L6.7028 3.31488L6.703 3.2818L6.70649 2.69698ZM5.28471 9.49985C5.28471 7.28294 7.17175 5.47842 9.50005 5.47842C11.8283 5.47842 13.7154 7.28294 13.7154 9.49985C13.7154 11.7168 11.8283 13.5213 9.50005 13.5213C7.17175 13.5213 5.28471 11.7168 5.28471 9.49985ZM12.1092 9.49985C12.1092 8.12173 10.938 7.00699 9.50005 7.00699C8.0621 7.00699 6.89085 8.12173 6.89085 9.49985C6.89085 10.878 8.0621 11.9927 9.50005 11.9927C10.938 11.9927 12.1092 10.878 12.1092 9.49985Z" fill="black" stroke="#F5F5F5" stroke-width="0.1"/>
</svg>
