<svg width="20" height="20" viewBox="0 0 20 20" fill="none" xmlns="http://www.w3.org/2000/svg">
<path d="M9.69105 13.4062C9.11922 13.4062 8.65625 13.8828 8.65625 14.4547C8.65625 15.0129 9.10559 15.5031 9.69105 15.5031C10.2765 15.5031 10.7395 15.013 10.7395 14.4547C10.7395 13.8828 10.263 13.4062 9.69105 13.4062Z" fill="black"/>
<path d="M9.86984 5.46875C8.03168 5.46875 7.1875 6.55801 7.1875 7.29328C7.1875 7.82434 7.6368 8.06941 8.00445 8.06941C8.73969 8.06941 8.44016 7.02098 9.82898 7.02098C10.5098 7.02098 11.0545 7.32055 11.0545 7.94687C11.0545 8.68219 10.292 9.10426 9.84262 9.48551C9.44777 9.8259 8.93035 10.3842 8.93035 11.5552C8.93035 12.2632 9.12094 12.4674 9.67922 12.4674C10.3464 12.4674 10.4825 12.1679 10.4825 11.9092C10.4825 11.2011 10.4962 10.7927 11.2451 10.2072C11.6127 9.92125 12.7701 8.99535 12.7701 7.71543C12.7701 6.43551 11.6127 5.46875 9.86984 5.46875Z" fill="black"/>
<path d="M10 0C4.47328 0 0 4.47254 0 10V19.2188C0 19.6502 0.349766 20 0.78125 20H10C15.5267 20 20 15.5275 20 10C20 4.47328 15.5275 0 10 0ZM10 18.4375H1.5625V10C1.5625 5.33684 5.33621 1.5625 10 1.5625C14.6632 1.5625 18.4375 5.33621 18.4375 10C18.4375 14.6632 14.6638 18.4375 10 18.4375Z" fill="black"/>
</svg>
