<svg width="20" height="20" viewBox="0 0 20 20" fill="none" xmlns="http://www.w3.org/2000/svg">
<path d="M10 0C8.02219 0 6.08879 0.58649 4.4443 1.6853C2.79981 2.78412 1.51809 4.3459 0.761209 6.17316C0.00433294 8.00043 -0.1937 10.0111 0.192152 11.9509C0.578004 13.8907 1.53041 15.6725 2.92894 17.0711C4.32746 18.4696 6.10929 19.422 8.0491 19.8078C9.98891 20.1937 11.9996 19.9957 13.8268 19.2388C15.6541 18.4819 17.2159 17.2002 18.3147 15.5557C19.4135 13.9112 20 11.9778 20 10C19.997 7.34875 18.9425 4.80696 17.0678 2.93224C15.193 1.05753 12.6512 0.00299965 10 0ZM10 18.6667C8.62334 18.6667 7.182 16.892 6.46667 14H13.5333C12.818 16.892 11.3767 18.6667 10 18.6667ZM6.196 12.6667C5.93467 10.8985 5.93467 9.10151 6.196 7.33333H13.804C13.9362 8.21604 14.0017 9.10745 14 10C14.0017 10.8925 13.9362 11.784 13.804 12.6667H6.196ZM1.33334 10C1.33382 9.09436 1.47691 8.19445 1.75734 7.33333H4.85734C4.60311 9.10202 4.60311 10.898 4.85734 12.6667H1.75734C1.47691 11.8055 1.33382 10.9056 1.33334 10ZM10 1.33333C11.3767 1.33333 12.818 3.108 13.5333 6H6.46667C7.182 3.108 8.62334 1.33333 10 1.33333ZM15.1427 7.33333H18.2427C18.8078 9.06619 18.8078 10.9338 18.2427 12.6667H15.1427C15.2691 11.7834 15.3328 10.8923 15.3333 10C15.3328 9.10772 15.2691 8.21661 15.1427 7.33333ZM17.6807 6H14.9027C14.606 4.55001 14.0243 3.17338 13.1913 1.95C15.1234 2.72054 16.7159 4.15718 17.6807 6ZM6.80867 1.95C5.97571 3.17338 5.39402 4.55001 5.09734 6H2.31934C3.28409 4.15718 4.87657 2.72054 6.80867 1.95ZM2.31934 14H5.09734C5.39402 15.45 5.97571 16.8266 6.80867 18.05C4.87657 17.2795 3.28409 15.8428 2.31934 14ZM13.1913 18.05C14.0243 16.8266 14.606 15.45 14.9027 14H17.6807C16.7159 15.8428 15.1234 17.2795 13.1913 18.05Z" fill="black"/>
</svg>
